<svg xmlns="http://www.w3.org/2000/svg" width="342" height="350" viewBox="0 0 342 350">
<g>
<path d="M 151.41 241.15 C150.63,242.42 138.47,242.01 130.63,240.45 C103.84,235.12 88.68,222.72 82.81,201.34 C80.85,194.17 80.62,190.47 80.24,158.25 L 79.83 123.00 L 60.16 123.00 C42.45,122.99 40.18,122.80 37.31,121.05 C33.48,118.71 32.01,114.28 32.01,105.00 C32.01,97.57 34.34,92.58 38.57,90.98 C39.98,90.44 49.87,90.00 60.55,90.00 L 79.97 90.00 L 80.23 64.82 L 80.50 39.65 L 101.00 32.85 C112.28,29.11 122.06,26.04 122.75,26.03 C123.72,26.01 124.00,33.05 124.00,58.00 L 124.00 90.00 L 169.00 90.00 L 169.00 101.19 L 161.75 107.98 C157.76,111.72 153.15,116.62 151.50,118.86 L 148.50 122.95 L 123.00 123.00 L 123.00 160.82 C123.00,201.02 123.41,205.82 127.84,217.50 C129.98,223.13 131.79,225.78 137.08,231.03 C141.33,235.25 145.13,238.05 147.80,238.93 C150.07,239.68 151.70,240.68 151.41,241.15 ZM 200.17 227.66 C192.65,231.38 189.54,232.37 184.17,232.73 C178.05,233.14 176.92,232.89 170.37,229.58 C161.96,225.34 156.38,219.67 151.90,210.83 C142.75,192.78 141.87,170.93 149.40,148.80 C156.55,127.78 169.64,112.69 189.72,102.30 C208.12,92.79 213.34,92.00 258.18,92.00 L 294.00 92.00 L 294.00 124.00 L 262.18 124.00 C243.45,124.00 227.94,124.45 224.46,125.09 C215.12,126.82 206.23,131.37 199.67,137.79 C188.67,148.56 184.55,160.72 185.20,180.50 C185.54,190.84 185.96,193.29 188.23,198.22 C191.89,206.18 198.54,212.95 206.19,216.51 C209.66,218.12 212.69,219.57 212.93,219.73 C213.80,220.33 209.22,223.18 200.17,227.66 ZM 250.00 306.52 C244.89,307.63 235.81,308.27 221.50,308.53 C199.70,308.94 188.81,307.97 173.00,304.23 L 165.50 302.46 L 165.20 296.73 L 164.90 291.00 L 171.57 291.00 C187.49,291.00 210.46,285.59 222.93,278.91 C225.91,277.31 229.29,276.00 230.43,275.99 C237.30,275.96 249.97,266.17 252.03,259.31 C252.78,256.80 254.53,254.48 257.18,252.50 C262.92,248.20 275.27,235.10 284.37,223.65 C289.68,216.97 292.53,214.13 293.22,214.82 C293.88,215.48 294.06,224.18 293.74,239.67 C293.18,266.42 292.22,271.55 285.49,283.58 C279.45,294.38 266.06,303.04 250.00,306.52 Z" fill="rgb(5,96,152)"/>
<path d="M 192.00 275.97 C182.33,278.32 161.93,279.38 152.47,278.03 C138.56,276.05 122.90,270.36 112.71,263.59 C103.03,257.17 92.15,244.70 86.83,233.95 C84.26,228.75 81.88,223.38 81.55,222.00 L 80.94 219.50 L 82.66 222.00 C85.91,226.75 97.52,237.64 102.33,240.45 C109.83,244.85 119.97,248.66 129.12,250.53 C141.72,253.10 163.93,252.18 178.00,248.50 C196.70,243.62 212.13,236.13 228.50,223.99 C242.45,213.65 253.60,202.08 263.05,188.11 L 267.37 181.72 L 264.82 179.61 C263.42,178.45 259.05,175.03 255.12,172.01 C248.62,167.02 248.17,166.45 250.23,165.84 C251.48,165.46 264.65,161.20 279.50,156.35 C294.35,151.51 307.06,147.39 307.75,147.20 C308.73,146.93 309.00,153.85 309.00,179.43 C309.00,197.34 308.66,212.00 308.25,212.00 C307.84,211.99 303.93,209.29 299.57,206.00 C295.20,202.70 291.28,200.00 290.84,200.00 C290.40,200.00 289.25,201.24 288.28,202.75 C282.81,211.30 270.72,226.05 262.24,234.53 C240.21,256.56 217.98,269.67 192.00,275.97 Z" fill="rgb(77,156,83)"/>
</g>
</svg>